<svg width="43" height="48" viewBox="0 0 43 48" fill="none" xmlns="http://www.w3.org/2000/svg">
<path d="M42.9904 20.2299C38.7682 20.239 34.6419 18.9825 31.2065 16.6345V33.0247C31.2065 36.0606 30.2373 39.0231 28.4237 41.5179C26.6101 44.0126 24.0479 45.9204 21.0732 46.9843C18.0984 48.0483 14.855 48.2225 11.7747 47.4704C8.69434 46.7183 5.9307 45.0949 3.83877 42.8111C1.74685 40.5273 0.451387 37.6748 0.096335 34.6573C-0.258717 31.6397 0.374619 28.5946 1.88119 25.9256C3.38776 23.2566 5.71958 21.092 8.56 19.7162C11.4004 18.3404 14.5959 17.836 17.7434 18.2487V26.4943C16.304 26.0632 14.759 26.0724 13.3292 26.531C11.8994 26.9896 10.6519 27.8701 9.77869 29.0349C8.90545 30.1997 8.43525 31.6122 8.44485 33.0614C8.45444 34.5105 8.94384 35.9047 9.83626 37.0695C10.7287 38.2343 11.9858 39.0965 13.4252 39.5367C14.8646 39.977 16.4095 39.977 17.8393 39.5276C19.2691 39.0781 20.5262 38.2068 21.409 37.042C22.2919 35.8771 22.7717 34.4647 22.7717 33.0247V0.978027H31.2161C31.2065 1.65675 31.2737 2.34464 31.3985 3.01419C31.6959 4.50921 32.3005 5.94003 33.1929 7.20575C34.0853 8.47148 35.2368 9.55376 36.5707 10.3792C38.4803 11.5808 40.7162 12.2228 43 12.2228V20.239L42.9904 20.2299Z" fill="black"/>
</svg>
