<svg width="46" height="45" viewBox="0 0 46 45" fill="none" xmlns="http://www.w3.org/2000/svg">
<path d="M46 22.4982C46 34.9267 35.7056 44.9965 23 44.9965C20.6258 44.9965 18.3444 44.6427 16.1927 43.9895C17.1294 42.4927 18.5298 40.0432 19.0492 38.0928C19.3274 37.0405 20.4774 32.7404 20.4774 32.7404C21.2286 34.1375 23.4173 35.3259 25.7452 35.3259C32.6823 35.3259 37.681 29.0844 37.681 21.328C37.681 13.8981 31.4766 8.33705 23.5008 8.33705C13.5774 8.33705 8.3004 14.8507 8.3004 21.9539C8.3004 25.2561 10.0996 29.3656 12.9653 30.672C13.4012 30.8716 13.6331 30.7809 13.7351 30.3726C13.8093 30.0642 14.1988 28.531 14.375 27.8234C14.4306 27.5966 14.4028 27.3971 14.2173 27.1793C13.2806 26.0453 12.5202 23.977 12.5202 22.0446C12.5202 17.0823 16.3597 12.2833 22.9073 12.2833C28.5552 12.2833 32.5153 16.0481 32.5153 21.4368C32.5153 27.5241 29.3714 31.7425 25.2815 31.7425C23.0278 31.7425 21.3306 29.919 21.8778 27.6783C22.527 25.0021 23.779 22.1172 23.779 20.1849C23.779 18.4613 22.8331 17.0188 20.8669 17.0188C18.5577 17.0188 16.7028 19.3503 16.7028 22.4801C16.7028 24.4759 17.3891 25.8185 17.3891 25.8185C17.3891 25.8185 15.1169 35.2351 14.6996 36.9951C14.2359 38.9365 14.4214 41.6762 14.6161 43.4543C6.06532 40.1793 0 32.0328 0 22.4982C0 10.0698 10.2944 0 23 0C35.7056 0 46 10.0698 46 22.4982Z" fill="black"/>
</svg>
