<svg width="41" height="41" viewBox="0 0 41 41" fill="none" xmlns="http://www.w3.org/2000/svg">
<path d="M20.5046 10.6613C14.6964 10.6434 9.97674 15.2433 9.95845 20.926C9.94016 26.6087 14.6416 31.2265 20.4497 31.2443C26.2578 31.2622 30.9775 26.6624 30.9958 20.9797C31.0141 15.297 26.3127 10.6792 20.5046 10.6613ZM20.4497 14.2768C24.2181 14.2589 27.2823 17.239 27.3006 20.926C27.3189 24.613 24.273 27.611 20.5046 27.6289C16.7361 27.6468 13.672 24.6667 13.6537 20.9797C13.6354 17.2926 16.6813 14.2947 20.4497 14.2768ZM28.9927 10.2407C28.9927 8.91625 30.0903 7.84236 31.444 7.84236C32.7977 7.84236 33.8953 8.91625 33.8953 10.2407C33.8953 11.5652 32.7977 12.6391 31.444 12.6391C30.0903 12.6391 28.9927 11.5652 28.9927 10.2407ZM40.8559 12.6749C40.7004 9.46215 39.9504 6.61632 37.5448 4.27165C35.1484 1.92698 32.2398 1.19315 28.9561 1.03206C25.5718 0.84413 15.4282 0.84413 12.0439 1.03206C8.76938 1.1842 5.86074 1.91803 3.45516 4.2627C1.04958 6.60737 0.3087 9.4532 0.14406 12.6659C-0.0480201 15.9771 -0.0480201 25.9017 0.14406 29.2129C0.299554 32.4256 1.04958 35.2715 3.45516 37.6161C5.86074 39.9608 8.76023 40.6946 12.0439 40.8557C15.4282 41.0437 25.5718 41.0437 28.9561 40.8557C32.2398 40.7036 35.1484 39.9698 37.5448 37.6161C39.9413 35.2715 40.6913 32.4256 40.8559 29.2129C41.048 25.9017 41.048 15.9861 40.8559 12.6749ZM36.4838 32.7657C35.7704 34.5197 34.3892 35.8711 32.5873 36.578C29.8891 37.6251 23.4864 37.3835 20.5046 37.3835C17.5228 37.3835 11.1109 37.6161 8.42181 36.578C6.62906 35.88 5.24791 34.5287 4.52532 32.7657C3.45516 30.1257 3.70212 23.8613 3.70212 20.9439C3.70212 18.0265 3.46431 11.7531 4.52532 9.12208C5.23876 7.36805 6.61991 6.01673 8.42181 5.30975C11.1201 4.2627 17.5228 4.50433 20.5046 4.50433C23.4864 4.50433 29.8982 4.27165 32.5873 5.30975C34.3801 6.00778 35.7612 7.3591 36.4838 9.12208C37.554 11.7621 37.307 18.0265 37.307 20.9439C37.307 23.8613 37.554 30.1347 36.4838 32.7657Z" fill="black"/>
</svg>
